<svg version="1.1" id="Layer_1" xmlns="http://www.w3.org/2000/svg" xmlns:xlink="http://www.w3.org/1999/xlink" x="0px" y="0px"
	 width="100%" viewBox="0 0 1024 1024" enable-background="new 0 0 1024 1024" xml:space="preserve">
<path fill="#fff" opacity="1.000000" stroke="none"
	d="
M194.877258,571.772583 
	C188.942963,546.406677 190.616196,522.141235 201.938675,498.914673 
	C212.217346,477.829346 228.139450,462.604919 250.064651,453.960114 
	C252.928146,452.831055 254.059143,451.764465 253.837585,448.287781 
	C251.390213,409.884918 264.904846,378.810242 297.118713,356.866150 
	C310.914337,347.468567 326.457245,342.845886 343.204041,342.727112 
	C346.297302,342.705200 348.428680,341.953766 350.307373,339.264709 
	C374.927429,304.024445 422.208038,293.142303 459.388367,314.327484 
	C463.705505,316.787384 466.192139,316.262238 469.732117,313.157684 
	C494.409973,291.515381 519.273010,270.084045 544.098267,248.609970 
	C550.306580,243.239670 553.755127,243.179749 560.326904,248.602631 
	C591.810486,274.582001 623.237122,300.630371 654.701721,326.632751 
	C698.496155,362.824615 742.276489,399.033813 786.164551,435.111908 
	C789.845459,438.137756 791.904297,441.274933 791.408264,446.127777 
	C791.088013,449.261688 791.384827,452.455200 791.334717,455.620911 
	C791.229065,462.290558 788.656677,464.920013 781.882446,465.072144 
	C776.718750,465.188110 771.550354,465.100525 766.384094,465.093597 
	C758.359680,465.082794 758.353455,465.079224 758.353516,472.889679 
	C758.354187,541.551819 758.360107,610.213928 758.356689,678.876038 
	C758.356201,689.458618 756.422729,691.378723 745.858337,691.376892 
	C664.697021,691.362427 583.535706,691.373230 502.374573,691.247681 
	C498.408295,691.241455 496.765259,692.111694 495.768951,696.331970 
	C486.372406,736.134460 463.837585,765.834412 426.706238,783.631653 
	C383.718628,804.235901 333.043945,792.543091 304.685059,755.836243 
	C299.983826,749.751038 296.072418,743.148193 293.342224,735.929260 
	C292.327271,733.245544 290.839600,731.641724 287.929138,730.733826 
	C252.473160,719.672791 232.307907,695.189026 225.868042,659.052185 
	C224.074799,648.989563 224.595230,638.828613 227.239319,628.885925 
	C227.949112,626.216797 227.713226,624.230164 225.457504,622.244751 
	C210.110764,608.736877 200.579178,591.639465 194.877258,571.772583 
M260.313141,681.166687 
	C271.016937,697.161011 286.096375,706.317871 304.910950,709.489258 
	C311.010071,710.517273 314.149841,714.062195 315.350861,719.938538 
	C317.185364,728.914673 321.143188,737.007874 327.005951,743.967041 
	C345.491638,765.909851 369.613434,772.018250 396.784851,766.969849 
	C425.834747,761.572388 446.642914,744.344238 460.891754,718.890808 
	C467.366333,707.324951 472.536072,695.057251 472.560791,681.637573 
	C472.746826,580.675659 472.664978,479.713226 472.669708,378.750977 
	C472.669922,374.045807 471.806244,369.468292 470.203644,365.087402 
	C461.383026,340.974792 436.031189,325.495575 407.312042,331.074615 
	C389.239868,334.585297 375.873505,345.078400 367.243774,361.306610 
	C363.932465,367.533539 359.394989,370.289703 352.294373,369.458679 
	C346.347473,368.762665 340.261963,368.494415 334.358185,369.676483 
	C302.015656,376.152069 279.504089,403.991394 279.268524,437.162323 
	C279.212524,445.044250 280.657837,452.696716 281.436707,460.453613 
	C282.276550,468.817017 278.575409,473.326416 270.273773,474.381226 
	C259.767059,475.716217 250.441208,479.816010 242.289734,486.567108 
	C203.512222,518.682800 209.249283,584.727905 249.959076,608.959412 
	C256.401276,612.794006 257.971283,618.969482 254.874664,625.838318 
	C253.503586,628.879578 252.058670,631.870789 251.408325,635.163086 
	C248.195312,651.428345 251.117874,666.547791 260.313141,681.166687 
M498.352112,415.499908 
	C498.351624,496.651855 498.351135,577.803772 498.350708,658.955750 
	C498.350677,659.788940 498.437958,660.632874 498.336090,661.453430 
	C497.863708,665.259460 499.231323,667.015564 503.327911,666.723083 
	C507.306488,666.439026 511.321960,666.677917 515.321228,666.676331 
	C522.641296,666.673462 522.648804,666.670166 522.649170,659.213074 
	C522.652100,603.722900 522.646423,548.232666 522.658813,492.742493 
	C522.660522,484.918457 524.915039,482.664276 532.762390,482.649933 
	C548.592834,482.621002 564.424500,482.536652 580.253052,482.709808 
	C584.330933,482.754425 585.793823,481.471527 585.753479,477.292603 
	C585.589600,460.303162 587.109863,443.342957 586.722717,426.336761 
	C586.551086,418.796387 589.855774,415.687256 597.304626,415.675964 
	C614.968140,415.649170 632.631714,415.670624 650.295227,415.672729 
	C661.066284,415.673981 663.346375,417.985596 663.346680,428.933685 
	C663.348389,505.920074 663.346985,582.906433 663.349976,659.892822 
	C663.350220,666.640808 663.361633,666.655945 670.265564,666.659851 
	C689.262207,666.670654 708.258789,666.670044 727.255432,666.668762 
	C734.648499,666.668274 734.643921,666.661865 734.643372,659.235535 
	C734.638855,591.080994 734.635498,522.926453 734.634827,454.771912 
	C734.634827,452.772430 734.556396,450.764435 734.708130,448.775208 
	C735.050537,444.285217 737.415344,441.741211 742.050659,441.654297 
	C744.954285,441.599823 747.859741,441.644104 750.764404,441.644104 
	C750.939026,441.120483 751.113586,440.596863 751.288208,440.073242 
	C685.289795,385.481598 619.291443,330.889954 553.259216,276.270355 
	C551.241455,277.908081 549.796875,279.022095 548.415955,280.210083 
	C528.463440,297.374817 508.601288,314.646210 488.497925,331.632202 
	C484.897217,334.674530 484.069550,336.625885 486.885406,340.902100 
	C494.538483,352.524139 498.656677,365.366943 498.390259,379.506927 
	C498.170532,391.167358 498.349854,402.835266 498.352112,415.499908 
M610.304016,641.500000 
	C610.308105,648.333008 610.431519,655.168945 610.265564,661.997803 
	C610.183228,665.383850 611.280823,666.847717 614.840637,666.714172 
	C620.332458,666.508118 625.837891,666.671631 631.337585,666.670288 
	C638.636292,666.668396 638.650024,666.665039 638.650574,659.182129 
	C638.655701,588.852478 638.655884,518.522827 638.656860,448.193176 
	C638.656921,447.193237 638.577454,446.187347 638.659607,445.194489 
	C638.913330,442.125641 637.377136,441.033234 634.489014,441.069336 
	C628.157104,441.148529 621.822876,441.194366 615.491638,441.104309 
	C612.331116,441.059418 611.042480,442.317627 611.007996,445.537140 
	C610.895569,456.028809 610.394958,466.518036 610.379211,477.008728 
	C610.297363,531.505737 610.319458,586.002869 610.304016,641.500000 
M547.284485,533.500000 
	C547.281494,575.972229 547.328247,618.444580 547.197510,660.916382 
	C547.184570,665.110046 548.119446,666.910828 552.713562,666.755432 
	C562.030090,666.440308 571.366882,666.551208 580.690979,666.723267 
	C584.217896,666.788330 585.743042,665.865356 585.734863,661.987122 
	C585.630188,612.186584 585.630615,562.385681 585.721924,512.585144 
	C585.729004,508.708893 584.503540,507.261169 580.553345,507.348267 
	C571.230713,507.553864 561.897888,507.532379 552.574280,507.346771 
	C548.738953,507.270416 547.129700,508.549896 547.249146,512.514832 
	C547.449646,519.170898 547.292175,525.837708 547.284485,533.500000 
z"/>
<path fill="#fff" opacity="1.000000" stroke="none"
	d="
M319.957397,676.332214 
	C308.583160,676.200195 300.638611,671.121399 296.127960,661.325500 
	C291.434540,651.132690 292.994293,641.331177 300.303619,632.927612 
	C307.473602,624.684265 317.007233,622.848267 327.171082,625.646606 
	C331.295898,626.782227 333.977753,626.079651 337.062317,623.469910 
	C347.604553,614.550110 357.939148,605.308716 371.550507,600.989746 
	C379.388550,598.502686 387.342621,597.210938 395.645081,597.447388 
	C395.511047,595.373535 394.002472,594.778687 392.963959,593.861267 
	C383.352844,585.370605 373.674103,576.955933 364.111572,568.411133 
	C359.415649,564.214966 354.129211,562.211487 347.771301,562.201294 
	C336.782471,562.183655 325.790222,561.831726 314.808441,561.393066 
	C311.345001,561.254761 309.015656,562.380127 306.582703,564.888855 
	C292.220367,579.698425 268.975800,574.555969 262.708008,555.338440 
	C258.735504,543.158447 264.375366,529.491089 275.658905,523.953796 
	C287.055267,518.361145 301.718109,521.774048 308.510132,532.409973 
	C311.293274,536.768188 314.349701,537.738831 319.044769,537.766602 
	C331.825867,537.842102 344.680054,536.614197 357.350189,539.563049 
	C365.444275,541.446899 372.777893,544.784607 379.125946,550.153015 
	C394.643524,563.276001 410.109528,576.459839 425.630432,589.578796 
	C428.885406,592.330017 430.702667,595.518066 430.410004,599.972839 
	C430.126617,604.285889 430.395142,608.632690 430.336304,612.963562 
	C430.257782,618.744385 427.952179,621.176819 422.160370,621.269409 
	C414.498627,621.391907 406.806274,621.720154 399.175507,621.220642 
	C382.909088,620.155762 369.682648,626.508789 357.947296,637.010864 
	C356.582306,638.232422 355.271576,639.534790 353.797943,640.611084 
	C348.710907,644.326294 345.452667,648.327026 344.788055,655.491150 
	C343.666504,667.580505 332.857330,675.855408 319.957397,676.332214 
z"/>
<path fill="#fff" opacity="1.000000" stroke="none"
	d="
M395.657654,484.361603 
	C399.107849,487.728638 402.318176,490.838684 405.682892,494.098267 
	C407.282684,492.539581 406.637299,490.626740 406.641418,488.961182 
	C406.692535,468.130096 406.564697,447.297760 406.768494,426.468567 
	C406.809845,422.239838 405.524109,419.504303 402.295349,416.712036 
	C394.266968,409.769073 391.098938,400.771606 393.334351,390.233337 
	C395.570099,379.693695 401.833618,372.572906 412.326538,369.839935 
	C424.623993,366.636993 437.552521,372.514343 442.741119,383.208740 
	C448.647339,395.382141 445.444458,409.864014 434.595764,417.597504 
	C431.260590,419.975037 430.302429,422.470764 430.313385,426.284180 
	C430.411469,460.447052 430.328857,494.610443 430.393494,528.773499 
	C430.400879,532.674866 429.948914,536.129028 426.114502,538.122864 
	C422.123993,540.197876 418.248596,539.572876 414.842560,536.963745 
	C406.345123,530.454407 399.354462,522.331970 391.777527,514.848022 
	C378.618103,501.850189 365.677429,488.629883 352.724091,475.425293 
	C350.705200,473.367279 348.818329,472.609100 345.752625,472.900818 
	C332.009216,474.208435 319.213379,462.330414 318.578308,448.090820 
	C317.890594,432.671753 328.522705,420.803680 343.149750,420.662842 
	C361.280762,420.488312 372.763611,434.565613 368.907501,452.593781 
	C368.283844,455.509399 368.908020,457.253479 370.844818,459.191589 
	C379.089752,467.442078 387.235748,475.791382 395.657654,484.361603 
z"/>
<path fill="#fff" opacity="1.000000" stroke="none"
	d="
M403.631958,669.630005 
	C406.505646,666.826538 409.110443,664.253418 411.758911,661.726074 
	C417.053894,656.673218 424.730316,656.118530 429.243713,660.432739 
	C434.092468,665.067505 433.875275,673.305298 428.453094,678.750732 
	C417.533539,689.717224 406.617340,700.696533 395.365997,711.317017 
	C392.235840,714.271729 391.735992,717.040466 392.436646,720.893433 
	C395.441925,737.419739 383.178802,752.191040 366.620514,752.183716 
	C353.653503,752.177979 342.538147,742.146545 340.794495,728.876160 
	C339.125549,716.174255 347.266785,704.232605 359.864685,700.979797 
	C361.630402,700.523926 363.615570,699.689514 365.231506,700.095581 
	C372.017365,701.800598 375.517639,697.167358 379.484192,693.279602 
	C387.446228,685.475830 395.416168,677.680176 403.631958,669.630005 
z"/>
</svg>